<svg xmlns="http://www.w3.org/2000/svg" viewBox="0 0 24 24" fill="currentColor"><path d="M12.53 0C12.2 0 12 0 12 0a12.04 12.04 0 0 0-1.5 2.5c-.3.6-.5 1.2-.6 1.8-.1.6-.1 1.2-.1 1.8v.1c0 .6.1 1.2.1 1.8.1.6.3 1.2.6 1.8.3.6.7 1.1 1.2 1.5.5.4 1.1.7 1.8.9.7.2 1.4.3 2.1.3.7 0 1.4-.1 2.1-.3.7-.2 1.3-.5 1.8-.9.5-.4.9-.9 1.2-1.5.3-.6.5-1.2.6-1.8.1-.6.1-1.2.1-1.8v-.1c0-.6-.1-1.2-.1-1.8-.1-.6-.3-1.2-.6-1.8-.3-.6-.7-1.1-1.2-1.5-.5-.4-1.1-.7-1.8-.9-.7-.2-1.4-.3-2.1-.3zM12 2.5c.3 0 .6 0 .9.1.3.1.6.2.8.4.3.2.5.4.7.7.2.3.3.6.4.9.1.3.1.6.1.9v.1c0 .3-.1.6-.1.9-.1.3-.2.6-.4.9-.2.3-.5.5-.7.7-.3.2-.6.3-.9.4-.3.1-.6.1-.9.1s-.6 0-.9-.1c-.3-.1-.6-.2-.8-.4-.3-.2-.5-.4-.7-.7-.2-.3-.3-.6-.4-.9-.1-.3-.1-.6-.1-.9v-.1c0-.3.1-.6.1-.9.1-.3.2-.6.4-.9.2-.3.5-.5.7-.7.3-.2.6-.3.9-.4zM12 12.5c-.3 0-.6 0-.9-.1-.3-.1-.6-.2-.8-.4-.3-.2-.5-.4-.7-.7-.2-.3-.3-.6-.4-.9-.1-.3-.1-.6-.1-.9v-.1c0-.3.1-.6.1-.9.1-.3.2-.6.4-.9.2-.3.5-.5.7-.7.3-.2.6-.3.9-.4.3-.1.6-.1.9-.1s.6 0 .9.1c.3.1.6.2.8.4.3.2.5.4.7.7.2.3.3.6.4.9.1.3.1.6.1.9v.1c0 .3-.1.6-.1.9-.1.3-.2.6-.4.9-.2.3-.5.5-.7.7-.3.2-.6.3-.9.4z"/></svg>